Coordinates
version=1
nRows=10
nColumns=22
inDegrees=yes

Units are S.I. units (second, meters, Newtons, ...)
If the header above contains a line with 'inDegrees', this indicates whether rotational values are in degrees (yes) or radians (no).

endheader
time	pelvis_tilt	pelvis_list	pelvis_rotation	pelvis_tx	pelvis_ty	pelvis_tz	hip_flexion_r	hip_adduction_r	hip_rotation_r	knee_angle_r	ankle_angle_r	subtalar_angle_r	hip_flexion_l	hip_adduction_l	hip_rotation_l	knee_angle_l	ankle_angle_l	subtalar_angle_l	lumbar_extension	lumbar_bending	lumbar_rotation
      0.01000000	      1.09835768	      1.01985188	    -31.74716296	     -0.99176604	      0.90655927	     -0.45021497	     -3.18398085	     -2.56014506	    -10.33386602	     -6.95208231	     18.10019182	     -3.25850191	     -0.23092922	     -1.70660854	    -10.55882197	    -10.65982937	     14.63356326	      1.53725302	     -4.08192146	     -2.85406588	      4.06366723
      0.02000000	      1.14796290	      0.98665465	    -31.78939127	     -0.99178372	      0.90663016	     -0.45008614	     -3.29482821	     -2.54800626	    -10.23208172	     -6.86334385	     18.08943878	     -3.31790628	     -0.32066114	     -1.71275536	    -10.62742028	    -10.63082934	     14.59206952	      1.53664373	     -4.15101802	     -2.84752469	      4.10478225
      0.03000000	      1.14790921	      0.98995044	    -31.79788326	     -0.99179426	      0.90660514	     -0.45000676	     -3.32028876	     -2.54506238	    -10.22756346	     -6.81543747	     18.09768737	     -3.32522539	     -0.32781634	     -1.71333047	    -10.63021758	    -10.62115316	     14.60114485	      1.53982578	     -4.14886748	     -2.84849515	      4.14303210
      0.04000000	      1.17421777	      0.97102955	    -31.83140663	     -0.99184277	      0.90663668	     -0.44989862	     -3.39744851	     -2.53243004	    -10.12348406	     -6.73221372	     18.07157685	     -3.35046382	     -0.38052878	     -1.71983378	    -10.67627633	    -10.59855638	     14.61031090	      1.55026134	     -4.19371407	     -2.84038357	      4.17637090
      0.05000000	      1.17517887	      0.97568986	    -31.83620778	     -0.99188702	      0.90661911	     -0.44983677	     -3.42226027	     -2.53001134	    -10.11332480	     -6.68255040	     18.08272985	     -3.35386245	     -0.37736351	     -1.72022787	    -10.67880836	    -10.60180434	     14.60795299	      1.55269135	     -4.20087669	     -2.84161206	      4.21002337
      0.06000000	      1.18203043	      0.97718570	    -31.84663296	     -0.99194985	      0.90661630	     -0.44978032	     -3.46543612	     -2.52520845	    -10.05102946	     -6.60758079	     18.08392550	     -3.35794530	     -0.37969446	     -1.72019763	    -10.69050904	    -10.60732293	     14.60642024	      1.55682493	     -4.21988922	     -2.83964815	      4.23446038
      0.07000000	      1.18014711	      0.98271533	    -31.84952989	     -0.99203220	      0.90660624	     -0.44975071	     -3.46306030	     -2.52511358	    -10.04884239	     -6.59782829	     18.08298844	     -3.35862444	     -0.37362898	     -1.72036387	    -10.69272379	    -10.60143213	     14.60660401	      1.55717441	     -4.23554563	     -2.83538707	      4.23716474
      0.08000000	      1.18629344	      0.98109078	    -31.86343641	     -0.99211038	      0.90661395	     -0.44969380	     -3.51276807	     -2.51499522	     -9.97357797	     -6.50932977	     18.07144280	     -3.36551226	     -0.37270456	     -1.72447318	    -10.70150390	    -10.61540289	     14.60133164	      1.56105151	     -4.25970101	     -2.83241305	      4.28789007
      0.09000000	      1.18392150	      0.98718542	    -31.86684781	     -0.99219642	      0.90660924	     -0.44968172	     -3.50800948	     -2.51556769	     -9.97137620	     -6.50011709	     18.06998083	     -3.36642021	     -0.36581478	     -1.72290391	    -10.70485534	    -10.60729916	     14.60165019	      1.56137393	     -4.27762234	     -2.82487839	      4.28841292
      0.10000000	      1.18691703	      0.98133726	    -31.89412093	     -0.99229413	      0.90662531	     -0.44963780	     -3.54547940	     -2.50228887	     -9.87285476	     -6.42543679	     18.04035846	     -3.38044427	     -0.37073427	     -1.72988656	    -10.72412071	    -10.60959760	     14.59210141	      1.56541817	     -4.30699607	     -2.80815594	      4.33495083
